<?xml version="1.0" standalone="no"?>
<!DOCTYPE svg PUBLIC "-//W3C//DTD SVG 20010904//EN"
 "http://www.w3.org/TR/2001/REC-SVG-20010904/DTD/svg10.dtd">
<svg version="1.0" xmlns="http://www.w3.org/2000/svg"
 width="262.000000pt" height="262.000000pt" viewBox="0 0 262.000000 262.000000"
 preserveAspectRatio="xMidYMid meet">
<metadata>
Created by potrace 1.14, written by Peter Selinger 2001-2017
</metadata>
<g transform="translate(0.000000,262.000000) scale(0.100000,-0.100000)"
fill="#000000" stroke="none">
<path d="M1290 2604 c-19 -8 -57 -33 -86 -54 -28 -22 -55 -40 -60 -40 -6 0
-25 11 -44 25 -25 18 -46 25 -81 25 -42 0 -52 -5 -85 -37 -20 -21 -40 -48 -45
-61 -18 -47 -2 -278 21 -292 18 -11 27 -55 18 -82 -9 -26 -19 -33 -41 -29 -10
2 -101 -51 -105 -61 -2 -5 -20 -16 -40 -26 -29 -14 -44 -16 -70 -8 -23 6 -44
6 -66 -2 -40 -15 -110 -16 -101 -2 7 12 -23 7 -180 -30 -120 -29 -227 -69
-240 -90 -12 -19 23 -45 165 -121 185 -99 190 -102 190 -147 -1 -65 -47 -314
-62 -327 -7 -7 -53 -34 -103 -60 -168 -89 -211 -114 -234 -139 -22 -24 -23
-27 -8 -49 12 -18 37 -30 99 -47 59 -16 309 -67 344 -70 1 0 27 -33 58 -74 30
-41 98 -117 151 -169 52 -51 95 -100 95 -108 0 -8 -23 -41 -52 -73 l-52 -58
-60 7 c-34 3 -74 8 -91 10 -98 14 -166 13 -180 -1 -39 -39 -13 -56 119 -79 49
-8 94 -19 99 -24 7 -7 -3 -30 -27 -67 -42 -63 -52 -110 -23 -108 9 1 42 19 72
40 30 20 58 34 63 30 4 -4 18 -51 32 -104 24 -92 26 -97 53 -100 l29 -4 -7
134 c-3 73 -8 149 -11 169 -3 33 2 43 64 110 66 72 69 74 102 67 376 -82 484
-89 699 -44 177 37 182 36 248 -27 l55 -53 -2 -115 c-1 -63 -3 -134 -4 -159
-3 -57 3 -80 20 -80 20 0 32 30 54 137 11 54 25 102 30 107 6 6 29 -4 62 -27
115 -78 155 -70 92 18 -21 31 -43 63 -49 71 -14 21 5 30 104 48 86 16 120 34
106 56 -5 9 -53 11 -173 9 l-166 -3 -48 43 c-26 23 -48 48 -48 55 0 18 130
146 148 146 8 0 44 -22 81 -49 82 -60 106 -72 156 -82 88 -17 159 32 185 127
7 27 25 65 40 84 53 69 63 98 56 169 -5 57 -3 70 18 105 45 78 45 142 -1 197
-49 58 -122 71 -264 48 -38 -7 -72 -10 -74 -7 -3 3 -12 54 -20 114 -48 347
-161 533 -422 695 -62 39 -113 75 -113 80 0 5 11 42 25 83 48 143 28 282 -50
341 -42 33 -83 40 -145 25 -43 -10 -58 -10 -93 3 -68 25 -90 27 -127 11z"/>
<path d="M715 2000 c-19 -8 -19 -9 3 -9 12 -1 22 4 22 9 0 6 -1 10 -2 9 -2 0
-12 -4 -23 -9z"/>
</g>
</svg>
